<svg width="24" height="24" viewBox="0 0 24 24" fill="none" xmlns="http://www.w3.org/2000/svg">
<path fill-rule="evenodd" clip-rule="evenodd" d="M16.537 12.9759C16.7323 12.7806 16.7323 12.464 16.537 12.2687C16.3418 12.0735 16.0252 12.0735 15.8299 12.2687L12.8418 15.2569L12.8418 7.5C12.8418 7.22385 12.6179 7 12.3418 7C12.0656 7 11.8418 7.22385 11.8418 7.5L11.8418 15.257L8.85358 12.2687C8.65832 12.0735 8.34174 12.0735 8.14648 12.2687C7.95122 12.464 7.95122 12.7806 8.14648 12.9759L11.9882 16.8176C12.0426 16.872 12.1064 16.9112 12.1744 16.9353C12.2179 16.9508 12.2642 16.9604 12.3123 16.9632C12.3907 16.9678 12.47 16.954 12.5432 16.9218C12.5856 16.9031 12.6259 16.8783 12.6629 16.8473C12.6753 16.8369 12.6872 16.8259 12.6986 16.8143L16.537 12.9759Z" fill="#676671"/>
</svg>
