<svg width="24" height="24" viewBox="0 0 24 24" fill="none" xmlns="http://www.w3.org/2000/svg">
<path fill-rule="evenodd" clip-rule="evenodd" d="M8.14645 10.9882C7.95118 11.1834 7.95118 11.5 8.14645 11.6953C8.34171 11.8905 8.65829 11.8905 8.85355 11.6953L11.8417 8.70714L11.8417 16.464C11.8417 16.7402 12.0655 16.964 12.3417 16.964C12.6178 16.964 12.8417 16.7402 12.8417 16.464L12.8417 8.70707L15.8299 11.6953C16.0251 11.8905 16.3417 11.8905 16.537 11.6953C16.7323 11.5 16.7323 11.1834 16.537 10.9882L12.6953 7.14645C12.6409 7.09205 12.5771 7.05281 12.5091 7.02872C12.4656 7.01326 12.4193 7.00366 12.3712 7.00086C12.2927 6.99627 12.2134 7.01005 12.1403 7.04222C12.0979 7.06087 12.0575 7.0857 12.0206 7.1167C12.0082 7.12714 11.9962 7.13817 11.9849 7.14974L8.14645 10.9882Z" fill="#676671"/>
</svg>
